HIERARCHY
ROOT Hips
{
	OFFSET 0.000000 0.000000 0.000000
	CHANNELS 6 Xposition Yposition Zposition Zrotation Yrotation Xrotation 
	JOINT LHipJoint
	{
		OFFSET 0.000000 0.000000 0.000000
		CHANNELS 3 Zrotation Yrotation Xrotation
		JOINT LeftUpLeg
		{
			OFFSET 1.363060 -1.794630 0.839290
			CHANNELS 3 Zrotation Yrotation Xrotation
			JOINT LeftLeg
			{
				OFFSET 2.448110 -6.726130 0.000000
				CHANNELS 3 Zrotation Yrotation Xrotation
				JOINT LeftFoot
				{
					OFFSET 2.562200 -7.039590 0.000000
					CHANNELS 3 Zrotation Yrotation Xrotation
					JOINT LeftToeBase
					{
						OFFSET 0.157640 -0.433110 2.322550
						CHANNELS 3 Zrotation Yrotation Xrotation
						End Site
						{
							OFFSET 0.000000 0.000000 0.000000
						}
					}
				}
			}
		}
	}
	JOINT RHipJoint
	{
		OFFSET 0.000000 0.000000 0.000000
		CHANNELS 3 Zrotation Yrotation Xrotation
		JOINT RightUpLeg
		{
			OFFSET -1.305520 -1.794630 0.839290
			CHANNELS 3 Zrotation Yrotation Xrotation
			JOINT RightLeg
			{
				OFFSET -2.542530 -6.985550 0.000000
				CHANNELS 3 Zrotation Yrotation Xrotation
				JOINT RightFoot
				{
					OFFSET -2.568260 -7.056230 0.000000
					CHANNELS 3 Zrotation Yrotation Xrotation
					JOINT RightToeBase
					{
						OFFSET -0.164730 -0.452590 2.363150
						CHANNELS 3 Zrotation Yrotation Xrotation
						End Site
						{
							OFFSET 0.000000 0.000000 0.000000
						}
					}
				}
			}
		}
	}
	JOINT LowerBack
	{
		OFFSET 0.000000 0.000000 0.000000
		CHANNELS 3 Zrotation Yrotation Xrotation
		JOINT Spine
		{
			OFFSET 0.028270 2.035590 -0.193380
			CHANNELS 3 Zrotation Yrotation Xrotation
			JOINT Spine1
			{
				OFFSET 0.056720 2.048850 -0.042750
				CHANNELS 3 Zrotation Yrotation Xrotation
				JOINT Neck
				{
					OFFSET 0.000000 0.000000 0.000000
					CHANNELS 3 Zrotation Yrotation Xrotation
					JOINT Neck1
					{
						OFFSET -0.054170 1.746240 0.172020
						CHANNELS 3 Zrotation Yrotation Xrotation
						JOINT Head
						{
							OFFSET 0.104070 1.761360 -0.123970
							CHANNELS 3 Zrotation Yrotation Xrotation
							End Site
							{
								OFFSET 0.000000 0.000000 0.000000
							}
						}
					}
				}
				JOINT LeftShoulder
				{
					OFFSET 0.000000 0.000000 0.000000
					CHANNELS 3 Zrotation Yrotation Xrotation
					JOINT LeftArm
					{
						OFFSET 3.362410 1.200890 -0.311210
						CHANNELS 3 Zrotation Yrotation Xrotation
						JOINT LeftForeArm
						{
							OFFSET 4.983000 -0.000000 -0.000000
							CHANNELS 3 Zrotation Yrotation Xrotation
							JOINT LeftHand
							{
								OFFSET 3.483560 -0.000000 -0.000000
								CHANNELS 3 Zrotation Yrotation Xrotation
								JOINT LeftFingerBase
								{
									OFFSET 0.000000 0.000000 0.000000
									CHANNELS 3 Zrotation Yrotation Xrotation
									JOINT LeftHandIndex1
									{
										OFFSET 0.715260 -0.000000 -0.000000
										CHANNELS 3 Zrotation Yrotation Xrotation
										End Site
										{
											OFFSET 0.000000 0.000000 0.000000
										}
									}
								}
								JOINT LThumb
								{
									OFFSET 0.000000 0.000000 0.000000
									CHANNELS 3 Zrotation Yrotation Xrotation
									End Site
									{
										OFFSET 0.000000 0.000000 0.000000
									}
								}
							}
						}
					}
				}
				JOINT RightShoulder
				{
					OFFSET 0.000000 0.000000 0.000000
					CHANNELS 3 Zrotation Yrotation Xrotation
					JOINT RightArm
					{
						OFFSET -3.136600 1.374050 -0.404650
						CHANNELS 3 Zrotation Yrotation Xrotation
						JOINT RightForeArm
						{
							OFFSET -5.241900 -0.000000 -0.000000
							CHANNELS 3 Zrotation Yrotation Xrotation
							JOINT RightHand
							{
								OFFSET -3.444170 -0.000000 -0.000000
								CHANNELS 3 Zrotation Yrotation Xrotation
								JOINT RightFingerBase
								{
									OFFSET 0.000000 0.000000 0.000000
									CHANNELS 3 Zrotation Yrotation Xrotation
									JOINT RightHandIndex1
									{
										OFFSET -0.622530 -0.000000 -0.000000
										CHANNELS 3 Zrotation Yrotation Xrotation
										End Site
										{
											OFFSET 0.000000 0.000000 0.000000
										}
									}
								}
								JOINT RThumb
								{
									OFFSET 0.000000 0.000000 0.000000
									CHANNELS 3 Zrotation Yrotation Xrotation
									End Site
									{
										OFFSET 0.000000 0.000000 0.000000
									}
								}
							}
						}
					}
				}
			}
		}
	}
}
MOTION
Frames: 5
Frame Time: 0.008333
0.446836 17.139911 1.517773 -38.407736 -76.953871 40.707855 -11.579739 -2.483106 -3.917463 -5.318422 -10.096256 -4.604246 -0.981141 1.382030 20.471581 1.742140 9.528096 -10.562690 -0.531500 0.000000 -33.191500 5.788435 6.384324 3.116801 -7.884489 -7.823637 -84.671072 2.136390 1.569587 -5.610254 -0.407272 -6.358172 10.809463 -3.665800 0.000000 -81.131000 6.862516 -4.294399 5.302091 0.244882 -4.477523 -2.421094 -8.116473 -4.498582 -1.528410 12.184889 -6.346645 -4.536848 -4.543176 -0.365829 0.725850 0.000000 0.000000 0.000000 -2.675579 -6.580212 2.310832 -71.727267 -6.818583 18.261272 -2.902228 -21.130597 -0.000868 4.166962 -3.731757 -0.140501 -0.064321 0.083402 0.000000 0.000000 0.000000 0.000000 0.000000 0.000000 0.000000 21.074463 -6.630459 1.605186 74.001968 -7.038316 -5.277036 3.829100 14.396157 0.011775 2.421636 9.675113 0.201355 0.057042 -0.040487 -0.000000 0.000000 0.000000 0.000000 0.000000 0.000000 0.000000 
0.454109 17.130564 1.520399 -38.699693 -76.941844 40.783693 -11.591773 -2.394237 -3.703449 -5.249249 -9.966167 -4.984258 -0.980341 1.386526 21.032110 1.724702 9.398658 -10.779297 -0.570600 0.000001 -33.224200 5.860008 6.337742 2.679116 -6.363160 -7.641586 -81.413891 2.181384 1.617690 -8.121221 -0.913219 -6.729139 16.272216 -3.773300 -0.000000 -82.875700 6.831332 -4.243937 5.341553 0.235359 -4.428307 -2.392389 -8.136887 -4.447378 -1.486473 12.252595 -6.515958 -4.556316 -4.544363 -0.365906 0.723154 0.000000 0.000000 0.000000 -2.745559 -6.407824 2.254372 -71.732379 -6.862797 19.038083 -2.891605 -21.634659 -0.000607 3.947462 -3.630534 -0.129589 -0.064430 0.083013 0.000000 0.000000 0.000000 0.000000 0.000000 0.000000 0.000000 21.173894 -6.769273 1.564384 73.943575 -6.911413 -5.504284 3.813303 14.578181 0.011912 2.322097 9.788903 0.195160 0.057228 -0.041804 -0.000000 0.000000 0.000000 0.000000 0.000000 0.000000 0.000000 
0.461572 17.121242 1.523510 -39.075405 -77.071607 40.926179 -11.616944 -2.339764 -3.633636 -5.264287 -9.828790 -5.031607 -0.991340 1.395031 21.352407 1.718719 9.345792 -10.939929 -0.599900 0.000000 -33.243000 5.979175 6.162896 2.402016 -5.144952 -7.302337 -82.529571 2.319942 0.832426 -1.833987 -0.899496 -6.230438 17.647553 -3.620999 -0.000000 -83.173801 6.760608 -4.176239 5.436971 0.204328 -4.355816 -2.383451 -8.150902 -4.372943 -1.459251 12.287158 -6.635122 -4.582322 -4.542461 -0.365243 0.715680 0.000000 0.000000 0.000000 -2.855961 -6.147181 2.213302 -71.715261 -6.919441 19.760848 -2.881519 -22.172554 -0.000362 3.745033 -3.555458 -0.120479 -0.064367 0.082679 0.000000 0.000000 0.000000 0.000000 0.000000 0.000000 0.000000 21.219969 -6.851055 1.530289 73.893586 -6.771489 -5.745686 3.797558 14.705708 0.012072 2.185617 9.913988 0.185765 0.057675 -0.043126 -0.000000 0.000000 0.000000 0.000000 0.000000 0.000000 0.000000 
0.468805 17.112866 1.527400 -39.859620 -77.219633 41.282703 -11.645630 -2.280310 -3.591539 -5.246801 -9.555831 -4.767585 -1.002147 1.406444 21.488343 1.709456 9.278038 -11.048185 -0.618400 0.000000 -33.297000 6.046508 6.023684 1.976864 -4.095047 -6.916592 -82.952727 2.323564 0.028700 4.204078 -0.891520 -5.789625 19.636506 -3.489900 0.000001 -81.698600 6.744961 -4.108095 5.703618 0.184211 -4.276550 -2.338152 -8.159685 -4.291546 -1.442776 12.290367 -6.697999 -4.603140 -4.537536 -0.364125 0.707345 0.000000 0.000000 0.000000 -3.011860 -5.826118 2.181189 -71.683791 -6.988573 20.394903 -2.869006 -22.729750 -0.000155 3.580550 -3.519782 -0.114169 -0.064157 0.082647 0.000000 0.000000 0.000000 0.000000 0.000000 0.000000 0.000000 21.211897 -6.858026 1.501855 73.846251 -6.620324 -5.978692 3.783868 14.784057 0.012252 2.020841 10.047218 0.173672 0.058329 -0.044407 -0.000000 0.000000 0.000000 0.000000 0.000000 0.000000 0.000000 
0.475122 17.106744 1.533302 -41.234683 -77.402563 42.149692 -11.692223 -2.220196 -3.572949 -5.128644 -9.082326 -4.382298 -1.009003 1.417257 21.498072 1.688260 9.141413 -11.113578 -0.625801 0.000000 -33.409200 6.065358 5.904488 1.502758 -3.309897 -6.379717 -82.627789 2.204977 -0.667361 9.501488 -0.910359 -5.479790 21.951040 -3.397900 -0.000000 -78.857500 6.812055 -4.022527 6.037817 0.181522 -4.180119 -2.276005 -8.164029 -4.193366 -1.431308 12.257362 -6.701766 -4.619434 -4.530094 -0.362745 0.699303 0.000000 0.000000 0.000000 -3.230192 -5.434349 2.152560 -71.644658 -7.057167 20.913881 -2.851128 -23.295363 -0.000003 3.471562 -3.532671 -0.111060 -0.063751 0.082854 0.000000 0.000000 0.000000 0.000000 0.000000 0.000000 0.000000 21.145894 -6.782737 1.478121 73.785370 -6.462173 -6.181441 3.776635 14.819497 0.012480 1.838824 10.183586 0.159677 0.059348 -0.045650 -0.000000 0.000000 0.000000 0.000000 0.000000 0.000000 0.000000 
